<?xml version="1.0" encoding="UTF-8"?>
<svg xmlns="http://www.w3.org/2000/svg" viewBox="0 0 1200 1200">
  <defs>
    <style>
      .b {
        fill: #fff;
      }
    </style>
  </defs>
  <rect width="1200" height="1200" rx="179.95" ry="179.95"/>
  <path class="b" d="M446.46,685.68c-8.71,129.01-68.2,221.61-178.47,277.8l-52.63-67.27c37.99-21.1,68.99-47.82,93-80.14,24-32.31,38.25-75.78,42.74-130.39h-53.82v-176.89c-6.86,6.33-13.59,12.27-20.18,17.81l-59.36-60.55c84.69-79.94,140.09-156.44,166.21-229.52l100.52,14.64c-5.81,15.3-12.66,30.47-20.58,45.51h134.94l30.87,25.72c-11.87,28.76-34.43,66.09-67.67,111.99h104.87v251.29h-87.46v152.36c0,6.07,2.04,11.48,6.13,16.23,4.09,4.75,21.57,7.78,52.43,9.1,30.87,1.32,62.92,1.98,96.16,1.98s64.31-.66,93.2-1.98c28.89-1.32,46.3-2.97,52.24-4.95,5.94-1.98,10.62-5.74,14.05-11.28,3.43-5.54,5.67-18.2,6.73-37.99-11.61,6.86-23.68,11.22-36.21,13.06-12.53,1.85-44.79,2.77-96.76,2.77l-14.64-85.87c14.51.27,27.44.4,38.78.4,20.58,0,33.37-.59,38.39-1.78,5.01-1.19,9.43-3.82,13.26-7.92,3.82-4.09,7.45-12.13,10.88-24.14,3.42-12,6.59-39.44,9.5-82.31,2.9-42.87,4.35-97.02,4.35-162.45h-44.32c-1.32,94.98-18.74,172.41-52.24,232.29-33.51,59.89-74.79,107.38-123.86,142.46l-60.15-59.36c43-35.88,76.51-77.89,100.52-126.04,24-48.14,36.8-111.26,38.39-189.36h-56.99v-81.52h57.38v-129.8h97.35v129.8h139.3v57.38c0,96.56-1.65,167.66-4.95,213.3-3.3,45.65-9.96,82.97-19.98,111.99l46.3,6.33v95.37c0,13.72-2.31,25.72-6.92,36.01-4.62,10.29-11.61,18.86-20.97,25.72-9.37,6.86-20.45,11.8-33.24,14.84-12.8,3.03-38.26,5.6-76.38,7.72-38.13,2.11-76.57,3.17-115.36,3.17-119.25,0-190.81-6.27-214.68-18.8-23.88-12.53-35.81-35.94-35.81-70.24v-176.5h-34.82ZM371.27,434.39h96.95l34.03-61.73h-81.52c-13.19,19.26-29.68,39.84-49.47,61.73ZM436.56,612.47v-102.89h-47.09l-.79,102.89h47.88ZM527.58,509.58v102.89h49.47v-102.89h-49.47Z"/>
</svg>
